<?xml version="1.0" encoding="UTF-8" standalone="no"?>
<!DOCTYPE svg PUBLIC "-//W3C//DTD SVG 1.1//EN"
"http://www.w3.org/Graphics/SVG/1.1/DTD/svg11.dtd">
<svg viewBox="0 0 1565 880" version="1.1" xmlns="http://www.w3.org/2000/svg" xmlns:xlink="http://www.w3.org/1999/xlink">
<defs>
<clipPath id="c0_2"><path d="M-.2 880.3V-.2H1565.5V880.3Z"/></clipPath>
<clipPath id="c1_2"><path d="M443.2 686.7V193.3h302V686.7Z"/></clipPath>
<clipPath id="c2_2"><path d="M111 433.4V193.3H411.8V433.4Z"/></clipPath>
<clipPath id="c3_2"><path d="M111 686.5V446.4H411.8V686.5Z"/></clipPath>
<clipPath id="c4_2"><path d="M904.4 515.3V489.5h32.7v25.8Z"/></clipPath>
<clipPath id="c5_2"><path d="M800.6 587.7V292.3H1381V587.7Z"/></clipPath>
<clipPath id="c6_2"><path d="M892.1 563.9V541.5h28.2v22.4Z"/></clipPath>
<style type="text/css"><![CDATA[
.g0_2{
fill: #FFF;
}
.g1_2{
fill: #FF7171;
}
]]></style>
</defs>
<g clip-path="url(#c0_2)">
<path d="M0 0H1565.2V880H0V0Z" class="g0_2"/>
<image x="0" y="0" width="1566" height="880" xlink:href="shade/1.png"/>
</g>
<image clip-path="url(#c1_2)" preserveAspectRatio="none" x="430" y="194" width="329" height="492" xlink:href="img/1.jpg"/>
<image clip-path="url(#c2_2)" preserveAspectRatio="none" x="111" y="88" width="301" height="451" xlink:href="img/2.jpg"/>
<image clip-path="url(#c3_2)" preserveAspectRatio="none" x="111" y="342" width="301" height="450" xlink:href="img/3.jpg"/>
<image clip-path="url(#c4_2)" preserveAspectRatio="none" x="905" y="487" width="32" height="32" xlink:href="img/4.png"/>
<path clip-path="url(#c5_2)" d="M800.9 292.6h579.7V587.4H800.9V292.6Z" class="g1_2"/>
<image clip-path="url(#c6_2)" preserveAspectRatio="none" x="892" y="536" width="28" height="27" xlink:href="img/5.png"/>
</svg>